# xmcd
#
# Track frame offsets:
#	150
#	13865
#	31190
#	42890
#	58110
#	72642
#	88035
#	100950
#	113360
#	126120
#	140430
#	152350
#	165610
#	179705
#	193162
#	205037
#	218822
#	234035
#	246762
#	258245
#
# Disc length: 3601 seconds
#
# Revision: 1
# Processed by: cddbd v1.5PL3 Copyright (c) Steve Scherf et al.
# Submitted via: CDex 1.50Beta5
#
DISCID=110e0f14
DTITLE=米川敏子　米川恵美　米川裕枝 - 決定版　琴のしらべ
DYEAR=2001
DGENRE=Easy Listening
TTITLE0=どこかで春が
TTITLE1=さくらさくら
TTITLE2=花
TTITLE3=荒城の月
TTITLE4=七つの子
TTITLE5=叱られて
TTITLE6=この道
TTITLE7=月見草の花
TTITLE8=旅愁
TTITLE9=宵待草
TTITLE10=雪の降る町
TTITLE11=浜辺の歌
TTITLE12=花嫁人形
TTITLE13=通りゃんせ
TTITLE14=夕やけこやけ
TTITLE15=箱根八里
TTITLE16=埴生の宿
TTITLE17=五木の子守歌
TTITLE18=出船
TTITLE19=庭の千草
EXTD=
EXTT0=
EXTT1=
EXTT2=
EXTT3=
EXTT4=
EXTT5=
EXTT6=
EXTT7=
EXTT8=
EXTT9=
EXTT10=
EXTT11=
EXTT12=
EXTT13=
EXTT14=
EXTT15=
EXTT16=
EXTT17=
EXTT18=
EXTT19=
PLAYORDER=
